<svg width="710" height="252" viewBox="0 0 710 252" fill="none" xmlns="http://www.w3.org/2000/svg">
<path d="M77.2889 69.48C77.2889 88.6311 62.6844 99.3778 41.88 99.3778C27.2756 99.3778 12.5333 94.28 0.96 83.9467L13.4978 68.9289C22.1778 76.0933 31.2711 80.64 42.2933 80.64C50.9733 80.64 56.2089 77.1956 56.2089 71.5467V71.2711C56.2089 65.8978 52.9022 63.1422 36.7822 59.0089C17.3556 54.0489 4.81778 48.6756 4.81778 29.5244V29.2489C4.81778 11.7511 18.8711 0.177777 38.5733 0.177777C52.6267 0.177777 64.6133 4.58667 74.3956 12.44L63.3733 28.4222C54.8311 22.4978 46.4267 18.9156 38.2978 18.9156C30.1689 18.9156 25.8978 22.6356 25.8978 27.32V27.5956C25.8978 33.9333 30.0311 36 46.7022 40.2711C66.2667 45.3689 77.2889 52.3956 77.2889 69.2044V69.48ZM169.138 98H95.7027V1.55555H168.449V20.4311H116.783V39.9956H162.249V58.8711H116.783V79.1244H169.138V98ZM271.359 98H246.559L225.892 67.1378H209.221V98H188.003V1.55555H232.092C254.825 1.55555 268.465 13.5422 268.465 33.3822V33.6578C268.465 49.2267 260.061 59.0089 247.799 63.5556L271.359 98ZM246.972 34.76V34.4844C246.972 25.3911 240.634 20.7067 230.301 20.7067H209.221V48.4H230.714C241.047 48.4 246.972 42.8889 246.972 34.76ZM361.005 98H287.569V1.55555H360.316V20.4311H308.649V39.9956H354.116V58.8711H308.649V79.1244H361.005V98ZM465.567 98H447.518L400.812 36.6889V98H379.869V1.55555H399.434L444.625 60.9378V1.55555H465.567V98ZM510.901 98H489.684V1.55555H510.901V98ZM608.026 21.12H578.679V98H557.462V21.12H528.115V1.55555H608.026V21.12ZM709.766 1.55555L672.704 59.56V98H651.486V59.9733L614.424 1.55555H639.224L662.233 40.2711L685.655 1.55555H709.766Z" fill="#343258"/>
<path d="M77.2889 221.48C77.2889 240.631 62.6844 251.378 41.88 251.378C27.2756 251.378 12.5333 246.28 0.96 235.947L13.4978 220.929C22.1778 228.093 31.2711 232.64 42.2933 232.64C50.9733 232.64 56.2089 229.196 56.2089 223.547V223.271C56.2089 217.898 52.9022 215.142 36.7822 211.009C17.3556 206.049 4.81778 200.676 4.81778 181.524V181.249C4.81778 163.751 18.8711 152.178 38.5733 152.178C52.6267 152.178 64.6133 156.587 74.3956 164.44L63.3733 180.422C54.8311 174.498 46.4267 170.916 38.2978 170.916C30.1689 170.916 25.8978 174.636 25.8978 179.32V179.596C25.8978 185.933 30.0311 188 46.7022 192.271C66.2667 197.369 77.2889 204.396 77.2889 221.204V221.48ZM172.032 187.173C172.032 209.493 154.672 221.067 133.04 221.067H116.92V250H95.7027V153.556H135.107C158.116 153.556 172.032 167.196 172.032 186.898V187.173ZM150.538 187.587V187.311C150.538 177.804 143.925 172.707 133.316 172.707H116.92V202.191H133.729C144.338 202.191 150.538 195.853 150.538 187.587ZM269.298 250H248.081V211.284H208.952V250H187.734V153.556H208.952V191.72H248.081V153.556H269.298V250ZM365.848 250H292.413V153.556H365.159V172.431H313.493V191.996H358.959V210.871H313.493V231.124H365.848V250ZM468.069 250H443.269L422.602 219.138H405.931V250H384.713V153.556H428.802C451.535 153.556 465.175 165.542 465.175 185.382V185.658C465.175 201.227 456.771 211.009 444.509 215.556L468.069 250ZM443.682 186.76V186.484C443.682 177.391 437.344 172.707 427.011 172.707H405.931V200.4H427.424C437.758 200.4 443.682 194.889 443.682 186.76ZM557.715 250H484.279V153.556H557.026V172.431H505.359V191.996H550.826V210.871H505.359V231.124H557.715V250Z" fill="#F15A59"/>
</svg>
